<?xml version="1.0" encoding="UTF-8"?>
<!DOCTYPE svg PUBLIC "-//W3C//DTD SVG 1.1//EN" "http://www.w3.org/Graphics/SVG/1.1/DTD/svg11.dtd">
<!-- Creator: CorelDRAW 2017 -->
<svg xmlns="http://www.w3.org/2000/svg" xml:space="preserve" width="193.954mm" height="51mm" version="1.1" shape-rendering="geometricPrecision" text-rendering="geometricPrecision" image-rendering="optimizeQuality" fill-rule="evenodd" clip-rule="evenodd"
viewBox="0 0 19395 5100"
 xmlns:xlink="http://www.w3.org/1999/xlink">
 <g id="Layer_x0020_1">
  <metadata id="CorelCorpID_0Corel-Layer"/>
  <g id="_2611970690960">
   <g id="_2611813266576">
    <g>
     <path fill="black" d="M11422 3014c0,237 -91,424 -273,561 -171,132 -390,197 -656,197 -403,0 -707,-105 -912,-317l378 -378c112,112 291,169 536,169 230,0 344,-72 344,-216 0,-116 -69,-186 -207,-207l-291 -40c-432,-61 -649,-292 -649,-696 0,-223 79,-405 238,-548 158,-141 371,-212 640,-212 349,0 620,96 811,287l-371 371c-94,-97 -247,-146 -456,-146 -94,0 -169,24 -223,71 -46,43 -68,93 -68,152 0,43 17,80 51,115 33,33 87,57 162,68l290 40c220,32 384,105 491,220 107,115 161,284 161,507l3 0z"/>
     <path fill="black" d="M8946 2549c0,-317 -29,-514 -87,-591 -54,-69 -133,-104 -237,-104 -104,0 -183,35 -236,104 -58,76 -87,273 -87,591 0,315 28,510 85,584 57,75 136,111 240,111 104,0 183,-37 240,-111 57,-75 85,-269 85,-584l-1 0zm591 0l0 0c0,245 -8,417 -26,517 -32,177 -104,323 -216,435 -180,180 -403,270 -672,270 -268,0 -492,-90 -672,-270 -112,-112 -184,-258 -216,-435 -18,-98 -26,-272 -26,-517 0,-245 10,-417 26,-517 32,-177 104,-323 216,-435 180,-180 403,-270 672,-270 268,0 492,90 672,270 112,112 184,258 216,435 18,98 26,272 26,517z"/>
     <polygon fill="black" points="7605,3751 6004,3751 6004,1347 6594,1347 6594,3224 7605,3224 "/>
     <polygon fill="black" points="5787,3751 5197,3751 5197,1347 5787,1347 "/>
     <polygon fill="black" points="4981,3751 4464,3751 3693,2542 3693,3751 3102,3751 3102,1347 3619,1347 4389,2556 4389,1347 4981,1347 "/>
     <polygon fill="black" points="2886,3751 2296,3751 2296,1347 2886,1347 "/>
     <polygon fill="black" points="2079,1347 1282,3751 843,3751 50,1347 660,1347 1066,2691 1464,1347 "/>
    </g>
    <g>
     <path fill="black" fill-rule="nonzero" d="M19240 4105c0,166 -60,306 -177,421 -119,115 -263,172 -434,172 -166,0 -309,-57 -427,-172 -118,-115 -177,-255 -177,-421 0,-162 60,-301 177,-414 119,-115 261,-172 427,-172 171,0 315,55 434,165 118,111 177,251 177,421z"/>
     <path fill="black" fill-rule="nonzero" d="M19345 998c0,250 -112,579 -337,988 -220,402 -333,843 -337,1322 0,47 -93,44 -94,1 -4,-445 -115,-908 -334,-1389 -222,-491 -334,-803 -334,-936 0,-229 78,-442 234,-639 157,-198 319,-297 489,-297 162,0 322,97 477,290 155,194 234,413 234,658l1 0z"/>
     <path fill="black" fill-rule="nonzero" d="M16089 3643l0 -1112c0,-6 1,-8 -3,-11 -6,-4 -14,-6 -21,3 -96,122 -298,143 -406,259 -147,157 -240,1153 112,1153 78,0 146,-30 205,-93 60,-62 114,-126 114,-198l-1 -1zm1388 215c98,0 159,-61 198,-183 37,-118 57,-259 58,-421 0,-28 94,-26 94,-1 -4,647 -259,972 -938,972 -306,0 -640,-155 -717,-471 -6,-24 -14,-14 -19,0 -64,154 -173,268 -319,347 -595,322 -1424,69 -1435,-692 -8,-566 377,-755 905,-804 222,-21 387,-44 491,-71 105,-28 180,-57 226,-87 46,-31 68,-83 68,-158l-6 -563c0,-161 -21,-277 -61,-347 -79,-134 -342,-129 -463,-50 -157,107 -64,225 50,315 87,68 132,171 132,306 0,129 -57,243 -171,342 -114,98 -298,148 -554,148 -567,0 -642,-739 -97,-1035 286,-155 628,-230 1024,-230 334,0 643,69 923,208 281,139 421,352 421,643l0 1421c0,133 12,234 37,305 19,73 71,111 151,111l0 -4z"/>
     <path fill="black" fill-rule="nonzero" d="M12613 4680c61,-93 93,-200 93,-319 0,-171 -60,-311 -177,-421 -119,-110 -263,-165 -434,-165 -166,0 -319,47 -427,172 -556,636 334,1536 1095,868 427,-376 959,-1706 1188,-2275 158,-392 306,-762 444,-1112 137,-349 230,-556 281,-620 50,-64 114,-101 187,-114 73,-12 125,-19 151,-22 21,-1 40,-3 60,-3 32,0 32,-101 0,-101l-1042 0c-12,0 -24,100 7,103l158 11c85,6 143,29 162,50 19,21 29,60 29,114 0,72 -35,187 -89,348 -54,159 -129,355 -222,585 -93,230 -159,395 -202,496l-456 -1175c-19,-50 -33,-103 -50,-155 -17,-53 -25,-96 -25,-129 0,-76 26,-119 79,-129 53,-11 96,-15 129,-15l79 0c26,0 28,-101 -1,-101l-2038 0c-19,0 -24,100 3,103l231 18c55,12 98,42 133,86 33,44 76,119 126,225 97,211 229,510 395,897 166,388 317,743 455,1065 132,309 209,517 298,728 8,19 6,67 -3,85 -105,244 -365,805 -624,966 -61,37 -26,-10 7,-60l0 -1z"/>
    </g>
   </g>
  </g>
 </g>
</svg>
